<mxfile host="Electron" modified="2023-10-24T08:41:51.965Z" agent="Mozilla/5.0 (Windows NT 10.0; Win64; x64) AppleWebKit/537.36 (KHTML, like Gecko) draw.io/21.7.5 Chrome/114.0.5735.289 Electron/25.8.1 Safari/537.36" etag="OLRHTcl92NkNNz7m_47K" version="21.7.5" type="device">
  <diagram id="C5RBs43oDa-KdzZeNtuy" name="Page-1">
    <mxGraphModel dx="1020" dy="496" grid="1" gridSize="10" guides="1" tooltips="1" connect="1" arrows="1" fold="1" page="1" pageScale="1" pageWidth="827" pageHeight="1169" math="0" shadow="0">
      <root>
        <mxCell id="WIyWlLk6GJQsqaUBKTNV-0" />
        <mxCell id="WIyWlLk6GJQsqaUBKTNV-1" parent="WIyWlLk6GJQsqaUBKTNV-0" />
        <mxCell id="CL6IZNRHChhoysLIs5vn-2" value="" style="edgeStyle=orthogonalEdgeStyle;rounded=0;orthogonalLoop=1;jettySize=auto;html=1;" edge="1" parent="WIyWlLk6GJQsqaUBKTNV-1" source="CL6IZNRHChhoysLIs5vn-0" target="CL6IZNRHChhoysLIs5vn-1">
          <mxGeometry relative="1" as="geometry" />
        </mxCell>
        <mxCell id="CL6IZNRHChhoysLIs5vn-0" value="start" style="ellipse;whiteSpace=wrap;html=1;" vertex="1" parent="WIyWlLk6GJQsqaUBKTNV-1">
          <mxGeometry x="260" y="20" width="90" height="50" as="geometry" />
        </mxCell>
        <mxCell id="CL6IZNRHChhoysLIs5vn-4" value="" style="edgeStyle=orthogonalEdgeStyle;rounded=0;orthogonalLoop=1;jettySize=auto;html=1;" edge="1" parent="WIyWlLk6GJQsqaUBKTNV-1" source="CL6IZNRHChhoysLIs5vn-1" target="CL6IZNRHChhoysLIs5vn-3">
          <mxGeometry relative="1" as="geometry" />
        </mxCell>
        <mxCell id="CL6IZNRHChhoysLIs5vn-1" value="int array [] = new int [10]" style="shape=hexagon;perimeter=hexagonPerimeter2;whiteSpace=wrap;html=1;fixedSize=1;" vertex="1" parent="WIyWlLk6GJQsqaUBKTNV-1">
          <mxGeometry x="233.75" y="110" width="142.5" height="60" as="geometry" />
        </mxCell>
        <mxCell id="CL6IZNRHChhoysLIs5vn-6" value="" style="edgeStyle=orthogonalEdgeStyle;rounded=0;orthogonalLoop=1;jettySize=auto;html=1;" edge="1" parent="WIyWlLk6GJQsqaUBKTNV-1" source="CL6IZNRHChhoysLIs5vn-3" target="CL6IZNRHChhoysLIs5vn-5">
          <mxGeometry relative="1" as="geometry" />
        </mxCell>
        <mxCell id="CL6IZNRHChhoysLIs5vn-28" value="true" style="edgeLabel;html=1;align=center;verticalAlign=middle;resizable=0;points=[];" vertex="1" connectable="0" parent="CL6IZNRHChhoysLIs5vn-6">
          <mxGeometry x="-0.0866" y="1" relative="1" as="geometry">
            <mxPoint as="offset" />
          </mxGeometry>
        </mxCell>
        <mxCell id="CL6IZNRHChhoysLIs5vn-24" style="edgeStyle=orthogonalEdgeStyle;rounded=0;orthogonalLoop=1;jettySize=auto;html=1;entryX=0;entryY=0.5;entryDx=0;entryDy=0;" edge="1" parent="WIyWlLk6GJQsqaUBKTNV-1" source="CL6IZNRHChhoysLIs5vn-3" target="CL6IZNRHChhoysLIs5vn-13">
          <mxGeometry relative="1" as="geometry">
            <Array as="points">
              <mxPoint x="220" y="235" />
              <mxPoint x="220" y="565" />
            </Array>
          </mxGeometry>
        </mxCell>
        <mxCell id="CL6IZNRHChhoysLIs5vn-29" value="false" style="edgeLabel;html=1;align=center;verticalAlign=middle;resizable=0;points=[];" vertex="1" connectable="0" parent="CL6IZNRHChhoysLIs5vn-24">
          <mxGeometry x="-0.6211" relative="1" as="geometry">
            <mxPoint as="offset" />
          </mxGeometry>
        </mxCell>
        <mxCell id="CL6IZNRHChhoysLIs5vn-3" value="i = array.length - 1" style="whiteSpace=wrap;html=1;" vertex="1" parent="WIyWlLk6GJQsqaUBKTNV-1">
          <mxGeometry x="247.5" y="210" width="115" height="50" as="geometry" />
        </mxCell>
        <mxCell id="CL6IZNRHChhoysLIs5vn-8" value="" style="edgeStyle=orthogonalEdgeStyle;rounded=0;orthogonalLoop=1;jettySize=auto;html=1;" edge="1" parent="WIyWlLk6GJQsqaUBKTNV-1" source="CL6IZNRHChhoysLIs5vn-5" target="CL6IZNRHChhoysLIs5vn-7">
          <mxGeometry relative="1" as="geometry" />
        </mxCell>
        <mxCell id="CL6IZNRHChhoysLIs5vn-5" value="i &amp;lt;= 0" style="rhombus;whiteSpace=wrap;html=1;" vertex="1" parent="WIyWlLk6GJQsqaUBKTNV-1">
          <mxGeometry x="243.75" y="300" width="122.5" height="50" as="geometry" />
        </mxCell>
        <mxCell id="CL6IZNRHChhoysLIs5vn-10" value="" style="edgeStyle=orthogonalEdgeStyle;rounded=0;orthogonalLoop=1;jettySize=auto;html=1;" edge="1" parent="WIyWlLk6GJQsqaUBKTNV-1" source="CL6IZNRHChhoysLIs5vn-7" target="CL6IZNRHChhoysLIs5vn-9">
          <mxGeometry relative="1" as="geometry" />
        </mxCell>
        <mxCell id="CL6IZNRHChhoysLIs5vn-7" value="input array [i]" style="shape=parallelogram;perimeter=parallelogramPerimeter;whiteSpace=wrap;html=1;fixedSize=1;" vertex="1" parent="WIyWlLk6GJQsqaUBKTNV-1">
          <mxGeometry x="242.5" y="390" width="125" height="50" as="geometry" />
        </mxCell>
        <mxCell id="CL6IZNRHChhoysLIs5vn-9" value="i--" style="whiteSpace=wrap;html=1;" vertex="1" parent="WIyWlLk6GJQsqaUBKTNV-1">
          <mxGeometry x="257.5" y="480" width="95" height="40" as="geometry" />
        </mxCell>
        <mxCell id="CL6IZNRHChhoysLIs5vn-15" value="" style="edgeStyle=orthogonalEdgeStyle;rounded=0;orthogonalLoop=1;jettySize=auto;html=1;" edge="1" parent="WIyWlLk6GJQsqaUBKTNV-1" source="CL6IZNRHChhoysLIs5vn-13" target="CL6IZNRHChhoysLIs5vn-14">
          <mxGeometry relative="1" as="geometry" />
        </mxCell>
        <mxCell id="CL6IZNRHChhoysLIs5vn-25" style="edgeStyle=orthogonalEdgeStyle;rounded=0;orthogonalLoop=1;jettySize=auto;html=1;entryX=1;entryY=0.5;entryDx=0;entryDy=0;" edge="1" parent="WIyWlLk6GJQsqaUBKTNV-1" source="CL6IZNRHChhoysLIs5vn-13" target="CL6IZNRHChhoysLIs5vn-3">
          <mxGeometry relative="1" as="geometry">
            <Array as="points">
              <mxPoint x="383" y="565" />
              <mxPoint x="383" y="235" />
            </Array>
          </mxGeometry>
        </mxCell>
        <mxCell id="CL6IZNRHChhoysLIs5vn-13" value="i = 0" style="whiteSpace=wrap;html=1;" vertex="1" parent="WIyWlLk6GJQsqaUBKTNV-1">
          <mxGeometry x="257.5" y="545" width="95" height="40" as="geometry" />
        </mxCell>
        <mxCell id="CL6IZNRHChhoysLIs5vn-17" value="" style="edgeStyle=orthogonalEdgeStyle;rounded=0;orthogonalLoop=1;jettySize=auto;html=1;" edge="1" parent="WIyWlLk6GJQsqaUBKTNV-1" source="CL6IZNRHChhoysLIs5vn-14" target="CL6IZNRHChhoysLIs5vn-16">
          <mxGeometry relative="1" as="geometry" />
        </mxCell>
        <mxCell id="CL6IZNRHChhoysLIs5vn-31" value="true" style="edgeLabel;html=1;align=center;verticalAlign=middle;resizable=0;points=[];" vertex="1" connectable="0" parent="CL6IZNRHChhoysLIs5vn-17">
          <mxGeometry x="-0.2341" y="-1" relative="1" as="geometry">
            <mxPoint as="offset" />
          </mxGeometry>
        </mxCell>
        <mxCell id="CL6IZNRHChhoysLIs5vn-27" style="edgeStyle=orthogonalEdgeStyle;rounded=0;orthogonalLoop=1;jettySize=auto;html=1;entryX=0;entryY=0.5;entryDx=0;entryDy=0;" edge="1" parent="WIyWlLk6GJQsqaUBKTNV-1" source="CL6IZNRHChhoysLIs5vn-14" target="CL6IZNRHChhoysLIs5vn-22">
          <mxGeometry relative="1" as="geometry">
            <Array as="points">
              <mxPoint x="206" y="660" />
              <mxPoint x="206" y="945" />
            </Array>
          </mxGeometry>
        </mxCell>
        <mxCell id="CL6IZNRHChhoysLIs5vn-30" value="false" style="edgeLabel;html=1;align=center;verticalAlign=middle;resizable=0;points=[];" vertex="1" connectable="0" parent="CL6IZNRHChhoysLIs5vn-27">
          <mxGeometry x="-0.6319" y="1" relative="1" as="geometry">
            <mxPoint as="offset" />
          </mxGeometry>
        </mxCell>
        <mxCell id="CL6IZNRHChhoysLIs5vn-14" value="i &amp;lt; array.length" style="rhombus;whiteSpace=wrap;html=1;" vertex="1" parent="WIyWlLk6GJQsqaUBKTNV-1">
          <mxGeometry x="226.25" y="630" width="157.5" height="60" as="geometry" />
        </mxCell>
        <mxCell id="CL6IZNRHChhoysLIs5vn-19" value="" style="edgeStyle=orthogonalEdgeStyle;rounded=0;orthogonalLoop=1;jettySize=auto;html=1;" edge="1" parent="WIyWlLk6GJQsqaUBKTNV-1" source="CL6IZNRHChhoysLIs5vn-16" target="CL6IZNRHChhoysLIs5vn-18">
          <mxGeometry relative="1" as="geometry" />
        </mxCell>
        <mxCell id="CL6IZNRHChhoysLIs5vn-16" value="print i, array [i]" style="shape=parallelogram;perimeter=parallelogramPerimeter;whiteSpace=wrap;html=1;fixedSize=1;" vertex="1" parent="WIyWlLk6GJQsqaUBKTNV-1">
          <mxGeometry x="245" y="730" width="120" height="60" as="geometry" />
        </mxCell>
        <mxCell id="CL6IZNRHChhoysLIs5vn-23" value="" style="edgeStyle=orthogonalEdgeStyle;rounded=0;orthogonalLoop=1;jettySize=auto;html=1;" edge="1" parent="WIyWlLk6GJQsqaUBKTNV-1" source="CL6IZNRHChhoysLIs5vn-18" target="CL6IZNRHChhoysLIs5vn-22">
          <mxGeometry relative="1" as="geometry" />
        </mxCell>
        <mxCell id="CL6IZNRHChhoysLIs5vn-26" style="edgeStyle=orthogonalEdgeStyle;rounded=0;orthogonalLoop=1;jettySize=auto;html=1;entryX=1;entryY=0.5;entryDx=0;entryDy=0;" edge="1" parent="WIyWlLk6GJQsqaUBKTNV-1" source="CL6IZNRHChhoysLIs5vn-18" target="CL6IZNRHChhoysLIs5vn-14">
          <mxGeometry relative="1" as="geometry">
            <Array as="points">
              <mxPoint x="404" y="860" />
              <mxPoint x="404" y="660" />
            </Array>
          </mxGeometry>
        </mxCell>
        <mxCell id="CL6IZNRHChhoysLIs5vn-18" value="i++" style="whiteSpace=wrap;html=1;" vertex="1" parent="WIyWlLk6GJQsqaUBKTNV-1">
          <mxGeometry x="257.5" y="840" width="95" height="40" as="geometry" />
        </mxCell>
        <mxCell id="CL6IZNRHChhoysLIs5vn-22" value="stop" style="ellipse;whiteSpace=wrap;html=1;" vertex="1" parent="WIyWlLk6GJQsqaUBKTNV-1">
          <mxGeometry x="262.5" y="920" width="85" height="50" as="geometry" />
        </mxCell>
      </root>
    </mxGraphModel>
  </diagram>
</mxfile>
